<svg style="display: none" xmlns="http://www.w3.org/2000/svg">
  <symbol viewBox="0 0 128 24" id="footer-logo" fill="none">
    <g clip-path="url(#a)" fill="#111">
      <path d="M1.603 22.051A9.498 9.498 0 0 1 0 16.308V7.795a9.63 9.63 0 0 1 1.502-5.846C2.604.615 4.307 0 6.811 0s4.106.615 5.108 1.744a7.487 7.487 0 0 1 1.502 5.025v2.052H8.513V6.46a5.157 5.157 0 0 0-.3-2.05 1.463 1.463 0 0 0-.579-.63 1.415 1.415 0 0 0-.823-.191c-.701 0-1.202.205-1.403.718a6.774 6.774 0 0 0-.3 2.256v10.974a4.334 4.334 0 0 0 .4 2.154c.2.513.702.718 1.403.718.7 0 1.102-.205 1.302-.718.228-.693.33-1.423.3-2.154v-2.461h4.908v2.051a7.98 7.98 0 0 1-1.502 5.128c-1.002 1.231-2.705 1.847-5.108 1.847-2.404-.103-4.207-.718-5.208-2.052ZM19.33.308h5.71l4.206 23.384h-4.607l-.802-4.923h-3.305l-.801 4.923h-4.708L19.33.308Zm4.107 15.384-1.202-9.128-1.202 9.128h2.404ZM32.751 4.205h-3.405V.308h11.918v3.794H37.86v19.59h-5.108V4.205ZM50.379.308h8.814v2.461h-5.71v7.692h4.608v2.36h-4.607v8.615h5.709v2.359h-8.914V.308h.1ZM61.797.308H64l6.51 15.487V.308h2.604v23.384h-2.003l-6.61-16v16h-2.704V.308ZM76.119.308h8.814v2.461h-5.71v7.692h4.608v2.36h-4.607v8.615h5.709v2.359h-8.814V.308ZM87.537.308h4.607a7.874 7.874 0 0 1 5.108 1.436c1.102.923 1.603 2.564 1.603 4.717 0 2.975-.902 4.821-2.805 5.436l3.205 11.693H96.15l-3.004-10.975h-2.504V23.59h-3.205V.308h.1Zm4.407 10.05a4.301 4.301 0 0 0 2.904-.82c.601-.512.902-1.538.902-3.077a6.775 6.775 0 0 0-.3-2.256 2.583 2.583 0 0 0-1.103-1.23 4.473 4.473 0 0 0-2.203-.411h-1.402v7.692h1.202v.103ZM102.861 21.949A10.575 10.575 0 0 1 101.458 16V8.205c-.024-1.486.144-2.97.501-4.41a5.204 5.204 0 0 1 1.903-2.667 6.422 6.422 0 0 1 3.706-.923c2.103 0 3.606.513 4.507 1.641a7.982 7.982 0 0 1 1.402 5.129v.82h-3.004v-.718a15.503 15.503 0 0 0-.201-2.564 2.056 2.056 0 0 0-.801-1.333 3.04 3.04 0 0 0-1.903-.513 2.955 2.955 0 0 0-2.003.615 2.349 2.349 0 0 0-.801 1.641 19.734 19.734 0 0 0-.201 2.77v8.717a9.527 9.527 0 0 0 .601 3.898c.401.82 1.202 1.128 2.404 1.128.475.06.956-.024 1.384-.243a2.457 2.457 0 0 0 1.02-.988 9.634 9.634 0 0 0 .701-4.102v-1.641h-2.905v-2.36h5.809v11.59h-2.003l-.3-2.666a4.186 4.186 0 0 1-1.554 2.21 4.016 4.016 0 0 1-2.553.764 4.909 4.909 0 0 1-2.406-.47 5.037 5.037 0 0 1-1.9-1.581ZM119.988 15.487 115.08.41h3.005l3.505 11.282L124.995.41H128l-4.908 15.077v8.205h-3.004v-8.205h-.1Z"/>
    </g>
    <defs>
      <clipPath id="a">
        <path fill="#fff" d="M0 0h128v24H0z"/>
      </clipPath>
    </defs>
  </symbol>
  <symbol viewBox="0 0 23 16" id="icon-vkontakte">
    <path d="M.07 3.9927c0-.6219.4232-.9572 1.2694-1.006l3.261.0183c.2189 0 .3648.0915.4377.2744.3356.9145.7113 1.704 1.1271 2.3685.4158.6645.9593 1.4296 1.6305 2.2953.0583.1097.1532.1646.2845.1646.1021 0 .1824-.0427.2407-.128l.0657-.2012.0219-3.1641c0-.2195-.062-.3658-.186-.439-.124-.0731-.3539-.128-.6894-.1646-.2627-.0365-.394-.1707-.394-.4023 0-.0488.0073-.0854.0219-.1098C7.4674 2.7064 8.3428 2.31 9.7873 2.31l1.2256-.0183c.5544 0 1.014.1159 1.3787.3476.3648.2316.5472.5974.5472 1.0973v4.1517c.1021.061.1969.0915.2845.0915.2188 0 .4085-.1098.569-.3293 1.605-1.8777 2.4731-3.1335 2.6044-3.7676 0-.0122.0146-.0426.0438-.0914.1021-.183.2699-.3414.5033-.4756.2335-.134.4377-.2255.6128-.2743.0584-.0244.124-.0366.197-.0366h3.3923l.2188.0183c.2918 0 .518.1159.6785.3475a.63.63 0 0 1 .1203.2378c.0219.0853.0365.1707.0438.256.0073.0854.0109.1342.0109.1464v.128c-.1021.4999-.3611 1.0333-.7769 1.6003-.4158.567-.9447 1.1797-1.5867 1.838-.642.6585-1.0432 1.0913-1.2037 1.2986-.1313.1463-.197.2805-.197.4024 0 .0975.0584.2073.1751.3292l3.1953 3.3653c.1751.195.2626.4084.2626.6401 0 .2804-.1313.5121-.3939.695-.2626.1829-.5763.2865-.9411.3109l-.372.0183h-3.3266a.7942.7942 0 0 0-.0876.0091.8022.8022 0 0 1-.0875.0092c-.321 0-.6201-.1158-.8973-.3475-.1022-.0976-.7879-.8169-2.0573-2.1582-.0729-.0853-.1751-.1646-.3064-.2377-.0583.1951-.1349.4755-.2298.8413a57.6517 57.6517 0 0 1-.2079.7864l-.0656.3109c-.1459.4268-.4523.6829-.9192.7682l-.3064.0183H9.7435c-1.211 0-2.4184-.4633-3.622-1.39-1.2038-.9267-2.2871-2.1246-3.25-3.5939C1.9084 8.184 1.0111 6.474.1794 4.5231c-.073-.1585-.1094-.3354-.1094-.5304Zm13.1533 4.737c-.3064 0-.5836-.0702-.8317-.2104-.248-.1402-.372-.3323-.372-.5761V3.7366c0-.2439-.073-.4176-.2189-.5212-.1459-.1037-.4012-.1555-.766-.1555l-1.2474.0366c-.6274 0-1.1016.0914-1.4226.2743.642.256.963.6706.963 1.2437v3.219c-.0292.3048-.1751.5578-.4377.759-.2627.2011-.5545.3017-.8755.3017-.4377 0-.7732-.1768-1.0067-.5304-1.138-1.4387-1.9843-2.8043-2.5387-4.0968l-.197-.4755-2.9108-.0183c-.1896 0-.2954.0091-.3173.0274-.0219.0183-.0328.0701-.0328.1555 0 .1097.0146.2256.0437.3475l.4596 1.0242c1.2256 2.6459 2.557 4.7308 3.9941 6.255 1.4372 1.5241 2.8488 2.2861 4.2349 2.2861h2.1885c.0876 0 .1532-.0213.197-.064.0438-.0426.0803-.125.1094-.2469l.0438-.1829.4158-1.6094c.1168-.2195.2189-.3658.3064-.439.1605-.1341.3502-.2012.5691-.2012.3501 0 .7076.1768 1.0724.5304l1.8602 1.9753c.1167.1585.2408.2377.3721.2377h3.6111c.4377 0 .6566-.0914.6566-.2743 0-.061-.0219-.1219-.0657-.1829l-3.1734-3.3104c-.248-.256-.3721-.5304-.3721-.823 0-.2926.1168-.573.3502-.8413.1897-.2439.5581-.6493 1.1052-1.2163.5472-.567 1.025-1.0973 1.4335-1.5911.4086-.4939.6785-.942.8098-1.3443l.0656-.2378c-.0145-.0244-.0218-.064-.0218-.1189 0-.0548-.0073-.1005-.0219-.1371h-3.436c-.2189.0731-.394.1829-.5253.3292l-.1313.3475c-.3648.8413-1.3204 2.1399-2.867 3.8956-.3064.2439-.6639.3658-1.0724.3658Z"/>
  </symbol>
  <symbol viewBox="0 0 16 16" id="icon-instagram">
    <path d="M7.98.06c1.34 0 2.43.02 3.27.05a6 6 0 0 1 1.92.37 3.99 3.99 0 0 1 2.31 2.32 6 6 0 0 1 .38 1.92 91.88 91.88 0 0 1 0 6.53 6 6 0 0 1-.38 1.92 3.99 3.99 0 0 1-2.3 2.31 6 6 0 0 1-1.93.38 91.88 91.88 0 0 1-6.53 0 6 6 0 0 1-1.92-.38 3.99 3.99 0 0 1-2.32-2.3 6 6 0 0 1-.37-1.93 91.73 91.73 0 0 1 0-6.53A6 6 0 0 1 .48 2.8 3.99 3.99 0 0 1 2.8.48 6 6 0 0 1 4.72.11C5.56.08 6.65.06 7.98.06Zm0 1.03c-1.38 0-2.51.02-3.39.05-.56.02-1.08.12-1.56.3-.75.31-1.28.84-1.6 1.6-.17.47-.27 1-.29 1.55a98.83 98.83 0 0 0 0 6.79c.02.56.12 1.08.3 1.56.31.75.84 1.28 1.6 1.6.47.17 1 .27 1.55.29a98.66 98.66 0 0 0 6.79 0 5.01 5.01 0 0 0 1.56-.3 2.85 2.85 0 0 0 1.6-1.6c.17-.47.27-1 .29-1.55a98.66 98.66 0 0 0 0-6.79 5.01 5.01 0 0 0-.3-1.56 2.85 2.85 0 0 0-1.6-1.6c-.47-.17-1-.27-1.55-.29-.88-.03-2.01-.05-3.4-.05Zm0 10.07c.88 0 1.63-.31 2.25-.93.62-.62.93-1.37.93-2.25 0-.87-.31-1.62-.93-2.24a3.06 3.06 0 0 0-2.25-.93c-.87 0-1.62.31-2.24.93a3.06 3.06 0 0 0-.93 2.24c0 .88.31 1.63.93 2.25.62.62 1.37.93 2.24.93Zm0-7.24c1.13 0 2.09.4 2.88 1.19.8.8 1.19 1.75 1.19 2.87 0 1.13-.4 2.09-1.2 2.88-.78.8-1.74 1.19-2.87 1.19-1.12 0-2.08-.4-2.87-1.2a3.92 3.92 0 0 1-1.19-2.87c0-1.12.4-2.08 1.19-2.87.8-.8 1.75-1.19 2.87-1.19Zm5.2-.15a.95.95 0 0 1-.97.94.9.9 0 0 1-.67-.28.9.9 0 0 1-.27-.66.95.95 0 0 1 .93-.97c.26 0 .49.1.68.29.2.19.3.42.3.68Z"/>
  </symbol>
  <symbol viewBox="0 0 22 22" id="icon-facebook" fill="none">
    <path d="M16.5 1.83h-2.75c-1.22 0-2.38.48-3.24 1.32a4.45 4.45 0 0 0-1.34 3.18v2.7H6.42v3.59h2.75v7.19h3.66v-7.2h2.75l.92-3.59h-3.67v-2.7c0-.23.1-.46.27-.63.17-.17.4-.26.65-.26h2.75v-3.6Z" stroke-width="1.1" stroke-linecap="round" stroke-linejoin="round"/>
  </symbol>
  <symbol viewBox="0 0 60 60" id="logo-html-academy">
    <path d="M30.2 5h-.2l-19.7 2.1v36.2l19.7 11.7 19.7-11.7v-36.2l-19.5-2.1zm17 36.8l-17.2 10.2-17.2-10.2v-14.8l17.1 10.2v1.8l-11.7-7v1.8l11.8 7.1v1.9l-11.8-7v1.8l11.8 7 11.9-7.1v-7.6l5.3-3.2v15.1zm-.1-17l-4.7 2.8-2.2 1.3-10.3-6.1v1.8l8.8 5.3h-.1l-.2.1-1.3.7-7.3-4.3v1.8l5.8 3.4-1.4.9-4.3-2.6v1.8l2.9 1.7-2.9 1.7-17-10.1 17-10.2 17.2 10zm.1-1.8l-17.3-10.2-17.1 10.2v-13.6l17.2-1.8 17.2 1.8v13.6z"/>
  </symbol>
  <symbol viewBox="0 0 19 14" id="icon-mail" fill="none">
    <path stroke="#222" stroke-width="1.3" d="M.65 5.848v8M17.65 5.848v8M0 13.198h18M0 1.198h18M17.35 3.03 9 9.524.65 3.03V1.498h16.7V3.03Z"/>
  </symbol>
  <symbol viewBox="0 0 20 21" id="icon-phone" fill="none">
    <g clip-path="url(#a)" fill="#000">
      <path d="M17.9 9.753H9.4v1.204h8.5l-2.1 2.107.9.903 3.1-3.11a.754.754 0 0 0 0-.904l-3.1-3.11-.9.903 2.1 2.007ZM8.1 19.787v-6.221a.653.653 0 0 0-.6-.602H3.1a1.226 1.226 0 0 0 1.2 1.204h2.5v5.017H3.1a1.784 1.784 0 0 1-1.728-1.02 1.801 1.801 0 0 1-.172-.686V3.431a1.78 1.78 0 0 1 .483-1.25A1.767 1.767 0 0 1 2.9 1.624h3.9v5.017H4.4a1.218 1.218 0 0 0-1.2 1.204h4.4a.649.649 0 0 0 .6-.602V.923A.863.863 0 0 0 7.5.32H3.1a2.99 2.99 0 0 0-2.151.81A3.01 3.01 0 0 0 0 3.23v13.948a2.91 2.91 0 0 0 .772 2.192 2.89 2.89 0 0 0 2.128.919h4.6a.499.499 0 0 0 .6-.502Z"/>
    </g>
    <defs>
      <clipPath id="a">
        <path fill="#fff" transform="translate(0 .32)" d="M0 0h20v20.069H0z"/>
      </clipPath>
    </defs>
  </symbol>
  <symbol viewBox="0 0 32 12" id="icon-arrow" fill="#000">
    <path stroke="#000" stroke-width="2" d="M0 6h18"/>
    <path d="m24 6-6.75 5.2V.8L24 6Z"/>
  </symbol>
  <symbol viewBox="0 0 24 12" id="icon-arrow-small" fill="none">
    <path stroke="#000" stroke-width="2" d="M0 6h18"/>
    <path d="m24 6-6.75 5.196V.804L24 6Z" fill="#000"/>
  </symbol>
  <symbol viewBox="0 0 24 18" id="icon-burger" fill="none">
    <path stroke="#000" stroke-width="1.5" d="M0 1.25h24M0 9.25h24M0 17.25h24"/>
  </symbol>
  <symbol viewBox="0 0 20 20" id="icon-close" fill="none">
    <path transform="matrix(.68659 -.72705 .68659 .72705 2 20)" stroke="#000" stroke-width="1.5" d="M0-.75h24.76"/>
    <path transform="matrix(.68659 .72705 -.68659 .72705 1 2)" stroke="#000" stroke-width="1.5" d="M0-.75h24.76"/>
  </symbol>
  <symbol viewBox="0 0 78 80" id="icon-gift" fill="none">
    <path d="M64.0156 34.7127H14.031C12.2766 34.7127 10.8494 33.2951 10.8494 31.5524V22.0842C10.8494 20.3415 12.2766 18.9233 14.031 18.9233H64.0149C65.7687 18.9233 67.1953 20.3415 67.1953 22.0842V31.553C67.1959 33.2951 65.7693 34.7127 64.0156 34.7127ZM14.031 21.3455C13.6276 21.3455 13.2869 21.684 13.2869 22.0842V31.553C13.2869 31.9599 13.6208 32.2912 14.031 32.2912H64.0149C64.4244 32.2912 64.7578 31.9599 64.7578 31.553V22.0842C64.7578 21.6834 64.4171 21.3455 64.0149 21.3455H14.031Z" fill="white"/>
    <path d="M57.0447 67.1488H20.999C17.6218 67.1488 14.8741 64.4191 14.8741 61.0626V33.5016C14.8741 32.8331 15.4201 32.2905 16.0929 32.2905C16.7656 32.2905 17.3116 32.8331 17.3116 33.5016V61.0626C17.3116 63.0833 18.9661 64.7267 20.999 64.7267H57.0447C59.077 64.7267 60.7308 63.0833 60.7308 61.0626V33.5016C60.7308 32.8331 61.2768 32.2905 61.9496 32.2905C62.6223 32.2905 63.1683 32.8331 63.1683 33.5016V61.0626C63.1683 64.4191 60.4213 67.1488 57.0447 67.1488Z" fill="white"/>
    <path d="M39.0225 67.1488C38.3498 67.1488 37.8038 66.6069 37.8038 65.9378V33.5016C37.8038 32.8331 38.3498 32.2905 39.0225 32.2905C39.6953 32.2905 40.2413 32.8331 40.2413 33.5016V65.9372C40.2413 66.6069 39.6959 67.1488 39.0225 67.1488Z" fill="white"/>
    <path d="M23.8113 21.3414C19.9966 19.2874 18.5731 14.5327 20.6383 10.7415C22.7022 6.95201 27.4864 5.53687 31.303 7.58721C37.117 10.7166 40.2565 19.4472 40.3869 19.8172L38.0877 20.6208C38.0585 20.5384 35.1256 12.3994 30.1433 9.71749C27.5078 8.30175 24.2062 9.27908 22.7821 11.8944C21.3567 14.5121 22.339 17.7941 24.9734 19.2117L23.8113 21.3414Z" fill="white"/>
    <path d="M54.2313 21.3413L53.071 19.2111C54.3477 18.5238 55.2782 17.3848 55.6926 16.0035C56.1063 14.6217 55.9534 13.1624 55.2617 11.895C54.5719 10.6264 53.4263 9.70233 52.0363 9.29117C50.6457 8.88001 49.1783 9.0314 47.9023 9.71747C42.9201 12.3988 39.9871 20.5378 39.9579 20.6202L37.6587 19.8166C37.7891 19.4466 40.928 10.716 46.7421 7.58719C48.5897 6.5929 50.7182 6.3737 52.7316 6.96955C54.7468 7.56479 56.4061 8.90484 57.4061 10.7414C58.4073 12.5774 58.6285 14.6913 58.0289 16.6939C57.4287 18.6958 56.0801 20.3458 54.2313 21.3413Z" fill="white"/>
    <path d="M61.9496 50.9314H16.0929C15.4201 50.9314 14.8741 50.3889 14.8741 49.7204C14.8741 49.0518 15.4201 48.5093 16.0929 48.5093H61.9496C62.6223 48.5093 63.1683 49.0518 63.1683 49.7204C63.1683 50.3889 62.6229 50.9314 61.9496 50.9314Z" fill="white"/>
  </symbol>
  <symbol viewBox="0 0 30 30" id="icon-plus" fill="none">
    <line x1="15" x2="15" y2="30" stroke="#D3D3D3" stroke-width="2"/>
    <line x1="30" y1="15" y2="15" stroke="#D3D3D3" stroke-width="2"/>
  </symbol>
  <symbol viewBox="0 0 26 26" id="icon-tick" fill="none">
    <path d="m10 19.499-7.6-8.598L1 12.485l9 10.182 15-16.97L23.6 4 10 19.499Z" fill="#68B738"/>
  </symbol>
  <symbol viewBox="0 0 32 33" id="icon-usage-alarm"  fill="none">
    <ellipse cx="21.2042" cy="11.3297" rx="1.0873" ry="1.0851" fill="#fff"/>
    <ellipse cx="10.3311" cy="11.3297" rx="1.0873" ry="1.0851" fill="#fff"/>
    <ellipse cx="10.3311" cy="24.3512" rx="1.0873" ry="1.0851" fill="#fff"/>
    <ellipse cx="15.7677" cy="26.5214" rx="1.0873" ry="1.0851" fill="#fff"/>
    <ellipse cx="7.0692" cy="17.7748" rx="1.0873" ry="1.0851" fill="#fff"/>
    <ellipse cx="24.4661" cy="17.7748" rx="1.0873" ry="1.0851" fill="#fff"/>
    <ellipse cx="21.2042" cy="24.3512" rx="1.0873" ry="1.0851" fill="#fff"/>
    <mask id="a" fill="#fff">
      <path fill-rule="evenodd" clip-rule="evenodd" d="M20.9215 29.0581c.4083-.1959.9011-.1283 1.217.1961l1.8259 1.875a.6817.6817 0 0 0 .9766-.9511l-1.3567-1.3932c-.4259-.4374-.3615-1.1493.0977-1.5516C26.3238 24.9195 28 21.4688 28 17.6145 28 10.6477 22.5235 5 15.7678 5 9.0122 5 3.5356 10.6477 3.5356 17.6145c0 3.8143 1.6417 7.2332 4.236 9.5463.4528.4036.5133 1.11.0901 1.5446l-1.4341 1.4727a.6816.6816 0 0 0 .9766.9511l1.8796-1.9302c.3186-.3272.8166-.3929 1.2264-.1914 1.5928.7831 3.3756 1.2214 5.2576 1.2214 1.8412 0 3.5875-.4195 5.1537-1.1709Zm-5.1537-.2307c6.005 0 10.8731-5.0202 10.8731-11.2129 0-6.1927-4.8681-11.2129-10.8731-11.2129-6.005 0-10.873 5.0202-10.873 11.2129 0 6.1927 4.868 11.2129 10.873 11.2129Zm-.7595-11.5294V9.9409a.7813.7813 0 1 1 1.5625 0v8.1817a.803.803 0 0 1-.8031.8031.7594.7594 0 0 1-.7594-.7594v-.8683Z"/>
    </mask>
    <path fill-rule="evenodd" clip-rule="evenodd" d="M20.9215 29.0581c.4083-.1959.9011-.1283 1.217.1961l1.8259 1.875a.6817.6817 0 0 0 .9766-.9511l-1.3567-1.3932c-.4259-.4374-.3615-1.1493.0977-1.5516C26.3238 24.9195 28 21.4688 28 17.6145 28 10.6477 22.5235 5 15.7678 5 9.0122 5 3.5356 10.6477 3.5356 17.6145c0 3.8143 1.6417 7.2332 4.236 9.5463.4528.4036.5133 1.11.0901 1.5446l-1.4341 1.4727a.6816.6816 0 0 0 .9766.9511l1.8796-1.9302c.3186-.3272.8166-.3929 1.2264-.1914 1.5928.7831 3.3756 1.2214 5.2576 1.2214 1.8412 0 3.5875-.4195 5.1537-1.1709Zm-5.1537-.2307c6.005 0 10.8731-5.0202 10.8731-11.2129 0-6.1927-4.8681-11.2129-10.8731-11.2129-6.005 0-10.873 5.0202-10.873 11.2129 0 6.1927 4.868 11.2129 10.873 11.2129Zm-.7595-11.5294V9.9409a.7813.7813 0 1 1 1.5625 0v8.1817a.803.803 0 0 1-.8031.8031.7594.7594 0 0 1-.7594-.7594v-.8683Z" fill="#fff"/>
    <path d="m9.2838 29.199 2.8657 2.7906-2.8657-2.7906Zm1.2264-.1914 1.7648-3.5896-1.7648 3.5896Zm-3.106 2.1216-2.8657-2.7907 2.8657 2.7907Zm-.9766-.9511 2.8657 2.7906-2.8657-2.7906Zm17.1567-1.3932-2.8657 2.7907 2.8657-2.7907Zm.0977-1.5516-2.6355-3.009 2.6355 3.009Zm-15.9103-.0725-2.662 2.9856 2.662-2.9856Zm.09 1.5446-2.8656-2.7907 2.8656 2.7907Zm17.0793 1.4727 2.8657-2.7907-2.8657 2.7907Zm-.9766.9511 2.8657-2.7907-2.8657 2.7907Zm-1.8259-1.875-2.8657 2.7907 2.8657-2.7907Zm-1.217-.1961-1.7302-3.6065 1.7302 3.6065Zm-1.6487 2.9868 1.8259 1.8749 5.7314-5.5813-1.8259-1.8749-5.7314 5.5813Zm8.5339-4.6575L26.45 25.9942l-5.7314 5.5814 1.3567 1.3932 5.7314-5.5814Zm-1.4892 2.8549C29.8075 27.1855 32 22.6466 32 17.6145h-8c0 2.6766-1.1599 5.0389-2.9535 6.6098l5.271 6.018ZM32 17.6145C32 8.5555 24.8478 1 15.7678 1v8C20.1992 9 24 12.7399 24 17.6145h8ZM15.7678 1C6.6878 1-.4644 8.5555-.4644 17.6145h8C7.5356 12.7399 11.3365 9 15.7678 9V1ZM-.4644 17.6145c0 4.9798 2.1474 9.4767 5.5741 12.5319l5.3239-5.9712c-1.762-1.571-2.898-3.9119-2.898-6.5607h-8Zm5.4605 8.3002-1.4342 1.4727 5.7313 5.5813 1.4342-1.4727-5.7313-5.5813Zm5.2738 8.0051 1.8796-1.9302-5.7314-5.5813-1.8796 1.9302 5.7314 5.5813Zm-1.5245-1.3226a15.8778 15.8778 0 0 0 7.0224 1.6318v-8c-1.2535 0-2.4341-.2905-3.4928-.811l-3.5296 7.1792Zm7.0224 1.6318c2.4558 0 4.792-.5609 6.8839-1.5645l-3.4604-7.2129c-1.0405.4992-2.1969.7774-3.4235.7774v8Zm0-1.4016c8.3293 0 14.8731-6.928 14.8731-15.2129h-8c0 4.1005-3.1924 7.2129-6.8731 7.2129v8Zm14.8731-15.2129c0-8.285-6.5438-15.2129-14.8731-15.2129v8c3.6807 0 6.8731 3.1124 6.8731 7.2129h8ZM15.7678 2.4016c-8.3293 0-14.873 6.928-14.873 15.2129h8c0-4.1005 3.1923-7.2129 6.873-7.2129v-8ZM.8948 17.6145c0 8.2849 6.5437 15.2129 14.873 15.2129v-8c-3.6807 0-6.873-3.1124-6.873-7.2129h-8Zm11.676-.3165v.5426h8v-.5426h-8Zm0 .5426v.282h8v-.282h-8Zm6.4375.3257v-.3257h-8v.3257h8Zm0-.3257v-.5426h-8v.5426h8Zm0-.5426v-3.7979h-8v3.7979h8Zm0-3.7979V9.9409h-8v3.5592h8Zm-6.4375-3.5592v3.5592h8V9.9409h-8Zm0 3.5592v3.7979h8v-3.7979h-8Zm3.2187-8.3405c-2.6406 0-4.7812 2.1407-4.7812 4.7813h8c0 1.7777-1.4411 3.2187-3.2188 3.2187v-8Zm-3.2187 12.963c0-1.7656 1.4313-3.1969 3.1969-3.1969v8c2.6527 0 4.8031-2.1504 4.8031-4.8031h-8Zm-.4213 13.867c-.9926 1.0194-2.3974 1.1026-3.4041.6076l3.5296-7.1792c-1.8263-.898-4.227-.6834-5.8569.9903l5.7314 5.5813Zm-8.5877 1.9302c1.8379 1.8872 4.8703 1.8872 6.7081 0l-5.7314-5.5813c1.3027-1.3377 3.4521-1.3377 4.7548 0l-5.7315 5.5813Zm0-6.5324c-1.77 1.8177-1.77 4.7147 0 6.5324l5.7315-5.5813c1.2547 1.2884 1.2546 3.3418 0 4.6302l-5.7314-5.5813ZM26.45 25.9942c1.3427 1.3789.944 3.3052-.1325 4.2481l-5.271-6.018c-1.995 1.7474-2.5225 5.0976-.3279 7.3513l5.7314-5.5814ZM15.7895 13.1596c-1.7776 0-3.2187-1.441-3.2187-3.2187h8c0-2.6406-2.1406-4.7813-4.7813-4.7813v8ZM5.1097 30.1464c-1.0634-.9481-1.447-2.8625-.1136-4.2317l5.7313 5.5813c2.1797-2.2383 1.6751-5.5654-.2938-7.3208l-5.3239 5.9712Zm22.697 3.7734c1.7701-1.8177 1.7701-4.7147 0-6.5324l-5.7314 5.5814c-1.2547-1.2885-1.2547-3.3419 0-4.6303l5.7314 5.5813Zm-6.708 0c1.8378 1.8872 4.8702 1.8872 6.708 0l-5.7314-5.5813c1.3027-1.3377 3.4521-1.3377 4.7548 0l-5.7314 5.5813Zm-5.331-18.9941c1.7897 0 3.2406 1.4508 3.2406 3.2406h-8c0 2.6285 2.1308 4.7594 4.7594 4.7594v-8Zm9.2365 11.5379c-1.6161-1.6596-3.9925-1.8853-5.8129-1.012l3.4604 7.2129c-1.0037.4816-2.3947.391-3.3789-.6196l5.7314-5.5813Z" fill="#fff" mask="url(#a)"/>
    <path fill="#fff" d="M15 6V2h1.5v4z"/>
    <rect x="8" y="2" width="15.5" height="1.5" rx=".75" fill="#fff"/>
  </symbol>
  <symbol viewBox="0 0 25 30" id="icon-usage-eat"  fill="none">
    <path fill-rule="evenodd" clip-rule="evenodd" d="M18.6173.0761a1 1 0 0 1 1.0898.2168c.9085.9085 2.0967 2.8778 3.0588 5.918C23.7373 9.2803 24.5 13.508 24.5 19c0 .5523-.4477 1-1 1H20v9c0 .5523-.4477 1-1 1s-1-.4477-1-1V1a1 1 0 0 1 .6173-.9239ZM20 18h2.4912c-.0859-4.8164-.7861-8.5124-1.6321-11.1858-.2784-.8796-.5706-1.6427-.8591-2.2952V18ZM6 0c.5523 0 1 .4477 1 1v28c0 .5523-.4477 1-1 1s-1-.4477-1-1V1c0-.5523.4477-1 1-1Z" fill="#fff"/>
    <path fill-rule="evenodd" clip-rule="evenodd" d="M1.5 0c.5523 0 1 .4477 1 1v5.5c0 .5569.192 1.3152.7009 1.9166C3.68 8.9828 4.5145 9.5 5.9999 9.5c.5523 0 1 .4477 1 1s-.4477 1-1 1c-2.0144 0-3.43-.7328-4.3258-1.7916C.808 8.6848.5 7.4431.5 6.5V1c0-.5523.4477-1 1-1Z" fill="#fff"/>
    <path fill-rule="evenodd" clip-rule="evenodd" d="M10.5 0c-.5523 0-1 .4477-1 1v5.5c0 .5569-.192 1.3152-.7009 1.9166C8.32 8.9828 7.4854 9.5 6 9.5c-.5522 0-.9998.4477-.9998 1s.4476 1 .9998 1c2.0145 0 3.4301-.7328 4.326-1.7916C11.192 8.6848 11.5 7.4431 11.5 6.5V1c0-.5523-.4477-1-1-1Z" fill="#fff"/>
  </symbol>
  <symbol viewBox="0 0 30 32" id="icon-usage-leaf" fill="none">
    <g clip-path="url(#a)">
      <path d="M27.84 2.77a.95.95 0 0 0-.9-.77h-.01c-4.94.03-16.95.92-21.8 8.38-2.51 3.88-2.73 8.91-.64 14.96l.07.13a25.93 25.93 0 0 0-1.04 3.32c-.11.54.21 1.07.72 1.19l.2.02c.43 0 .81-.32.9-.79.03-.1 2.42-10.37 10.86-16.38.43-.3.55-.93.26-1.38a.9.9 0 0 0-1.3-.28c-4.79 3.4-7.74 8-9.47 11.65-1.24-4.57-.92-8.37.99-11.3 3.74-5.76 12.62-7.15 17.98-7.45-1.16 1.8-2.41 5.1-2.41 10.93 0 3.12-.83 5.52-2.47 7.14-2.62 2.6-6.88 2.83-10 2.58-.51-.04-.96.38-1 .93-.04.55.35 1.03.86 1.07.63.05 1.3.08 1.98.08 3.18 0 6.87-.66 9.43-3.2 2.04-2 3.07-4.9 3.07-8.6 0-9.1 3.22-11.1 3.23-11.1.4-.21.6-.68.5-1.13Z" fill="#fff"/>
    </g>
    <defs>
      <clipPath id="a">
        <path fill="#fff" d="M0 0h30v32H0z"/>
      </clipPath>
    </defs>
  </symbol>
  <symbol viewBox="0 0 29 31" id="icon-usage-tub" fill="none">
    <g clip-path="url(#a)" fill="#fff">
      <path d="M20.78 18.47c-1.71 0-3.1 1.48-3.1 3.3 0 1.83 1.4 3.3 3.1 3.3 1.7 0 3.08-1.47 3.08-3.3 0-1.82-1.38-3.3-3.08-3.3Zm0 5.02c-.89 0-1.6-.77-1.6-1.71 0-.95.71-1.72 1.6-1.72.88 0 1.6.77 1.6 1.72 0 .94-.72 1.7-1.6 1.7ZM11.6-.01c-1.75 0-3.18 1.52-3.18 3.4 0 1.89 1.43 3.41 3.19 3.41s3.18-1.52 3.18-3.4c0-1.89-1.42-3.41-3.18-3.41Zm0 5.48c-1.06 0-1.93-.93-1.93-2.07 0-1.15.87-2.07 1.94-2.07 1.07 0 1.93.92 1.93 2.07 0 1.14-.86 2.07-1.93 2.07ZM8.23 17.61c-1.3 0-2.34 1.12-2.34 2.5 0 1.39 1.04 2.5 2.34 2.5 1.3 0 2.34-1.11 2.34-2.5 0-1.38-1.05-2.5-2.34-2.5ZM8 19.5c-.46 0 1.16 1.1 1.16.61 0-.49-1.62.39-1.16.39.46 0 1.06-.88 1.06-.39 0 .5-.6-.61-1.06-.61ZM18.5 9.76s3.04-.84 6.18 1.5c.9.76 1.76 1.33 1.15 2.12-.34.34-.64.66-1.72-.53a6.92 6.92 0 0 0-5.61-1.44c-1.13.24-1.96.55-3.56 2.15a8.27 8.27 0 0 1-6.5 2.5c-2.52-.24-3.84-1.27-5.24-2.55-.3-.42-.3-.87-.12-1.13.17-.26.83-.52 1.2-.13.37.4 2.1 1.97 3.82 2.07 1.72.1 3.44.21 5.74-1.96 2.3-2.18 3.46-2.34 4.66-2.6Z"/>
      <mask id="b">
        <path d="M28.65 26.82V8.16c0-.58-.38-.65-.53-.66h-.5c-.5 0-.54.56-.54.74V26.84a2.68 2.68 0 0 1-.82 1.89c-.81.7-1.62.6-1.62.6s-20.18 0-20.66-.03a2.3 2.3 0 0 1-1.6-1c-.57-.8-.46-1.85-.46-1.85V8.3c0-.83-.67-.8-.67-.8h-.3c-.54 0-.6.58-.6.77v18.54c0 1.33.46 2.4 1.55 3.33 1.1.94 2.38.86 2.38.86h20.58c.86 0 1.98-.42 2.91-1.56.93-1.14.88-2.63.88-2.63Z"/>
      </mask>
      <path d="M28.65 26.82V8.16c0-.58-.38-.65-.53-.66h-.5c-.5 0-.54.56-.54.74V26.84a2.68 2.68 0 0 1-.82 1.89c-.81.7-1.62.6-1.62.6s-20.18 0-20.66-.03a2.3 2.3 0 0 1-1.6-1c-.57-.8-.46-1.85-.46-1.85V8.3c0-.83-.67-.8-.67-.8h-.3c-.54 0-.6.58-.6.77v18.54c0 1.33.46 2.4 1.55 3.33 1.1.94 2.38.86 2.38.86h20.58c.86 0 1.98-.42 2.91-1.56.93-1.14.88-2.63.88-2.63Z"/>
      <path d="M28.65 26.82h-20v.38l.01.39 19.99-.77ZM28.12 7.5l.71-19.99h-.71v20Zm-1.04.74-20-.15V8.24h20Zm0 .06h-20 20Zm0 18.54-19.99-.76v.02l19.99.74Zm-.82 1.89 13.03 15.16.44-.37.4-.4-13.87-14.4Zm-1.62.6L26.9 9.46l-1.13-.13h-1.13v20ZM3.98 29.3.58 49.01l1.14.2 1.15.06L3.98 29.3Zm-1.6-1-16.35 11.52L2.39 28.3Zm-.46-1.85 19.9 2.1.1-1.05v-1.05h-20ZM1.25 7.5v20h.39l.38-.01L1.25 7.5Zm-.9.78-20-.29V8.28h20ZM1.9 30.15l-13.02 15.18L1.9 30.15Zm2.38.86V11h-.65l-.64.04 1.29 19.96Zm23.5-1.56L43.25 42.1 27.78 29.45Zm20.87-2.63V8.16h-40v18.66h40Zm0-18.66a20.54 20.54 0 0 0-19.81-20.64L27.4 27.48A19.46 19.46 0 0 1 8.65 8.16h40ZM28.12-12.5h-.5v40h.5v-40Zm-.5 0A20.47 20.47 0 0 0 8.92-.38c-1.8 4-1.83 7.56-1.84 8.47l40 .3c0 .73-.02 3.91-1.67 7.6a19.47 19.47 0 0 1-17.8 11.51v-40ZM7.08 8.24v.05h40v-.04h-40Zm0 .05v.01h40-40Zm0 .02v10.51a8359.27 8359.27 0 0 1 0 7.25c0 .79 0 .45.01.01l39.97 1.52c.02-.51.02-1.37.02-1.45a1362.33 1362.33 0 0 0 0-7.34V8.3l-40 .02Zm.01 17.79c.05-1.35.38-7.05 5.28-11.77l27.77 28.8a22.68 22.68 0 0 0 6.92-15.54L7.1 26.09Zm6.13-12.54a17.51 17.51 0 0 1 12.43-4.2 19.23 19.23 0 0 1 1.17.1h.06s.02 0-2.24 19.87a2063.4 2063.4 0 0 0-2.24 19.88h.05a14.8 14.8 0 0 0 1.25.1 21.38 21.38 0 0 0 5.56-.45A22.49 22.49 0 0 0 39.3 43.9L13.22 13.56Zm11.42 15.77v-20h-.87A17598.02 17598.02 0 0 1 5.1 9.31c-1.07 0-.61 0 0 .03L2.88 49.27c.97.06 7.17.06 11.6.06h10.16v-20ZM7.38 9.6c.43.08 2.52.43 4.93 1.66 2.57 1.3 4.78 3.2 6.4 5.51l-32.67 23.07C-8.96 46.9-2.1 48.55.59 49L7.38 9.6Zm11.34 7.18a17.34 17.34 0 0 1 3.13 11.4 21.7 21.7 0 0 1-.03.28v.08c0 .01 0 .02-19.9-2.08l-19.89-2.09v.09a31.34 31.34 0 0 0-.07.78 22.65 22.65 0 0 0 .12 4.2 22.66 22.66 0 0 0 3.95 10.4l32.69-23.06Zm3.2 9.68V8.3h-40v18.14h40Zm0-18.14A20.74 20.74 0 0 0 2.28-12.47a20.44 20.44 0 0 0-1.76-.01H.5c-.01 0-.03 0 .75 19.98C2.02 27.5 2 27.5 2 27.5h-.07a28.65 28.65 0 0 1-1.65-.01 19.35 19.35 0 0 1-16-10.04 19.03 19.03 0 0 1-2.36-9.13h40ZM1.25-12.49h-.3v40h.3v-40Zm-.3 0A20.52 20.52 0 0 0-17.68-.66 21.17 21.17 0 0 0-19.64 8l40 .58c-.02.76-.05 4-1.8 7.72A19.44 19.44 0 0 1 .95 27.5v-40Zm-20.6 20.77V26.82h40V8.28h-40Zm0 18.54c0 7.06 2.92 13.7 8.53 18.51l26.05-30.35a15.62 15.62 0 0 1 4 5.37 15.72 15.72 0 0 1 1.42 6.47h-40Zm8.53 18.51a23.59 23.59 0 0 0 16.56 5.65h.06l.03-.01h.01c.01 0 .02 0-1.26-19.96C2.99 11.05 3 11.05 3 11.05h.04A537.28 537.28 0 0 1 4 11a17.44 17.44 0 0 1 3.65.36c1.88.4 4.64 1.34 7.29 3.6l-26.05 30.36Zm15.4-14.32v20H24.91l-.1-40H4.27v20ZM24.9 51c7.1-.02 13.8-3.34 18.35-8.9L12.3 16.8A16.17 16.17 0 0 1 24.8 11l.11 40Zm18.36-8.91a23.97 23.97 0 0 0 5.38-15.11 22.37 22.37 0 0 0-.02-.9v-.04l-19.98.77-19.99.76v-.04a23.42 23.42 0 0 1 .01-1.62 16.04 16.04 0 0 1 3.6-9.11l31 25.29Z" mask="url(#b)"/>
    </g>
    <defs>
      <clipPath id="a">
        <path fill="#fff" d="M0 0h29v31H0z"/>
      </clipPath>
    </defs>
  </symbol>
</svg>
